<svg xmlns="http://www.w3.org/2000/svg" viewBox="0 0 120 120"><g stroke="#213f43" stroke-width="3" stroke-linejoin="round"><path d="M25 57L18 18L31 14L40 54M40 54L40 6L54 6L54 53M57 56L60 14L73 16L70 58M72 57L83 9L96 13L85 64M87 58L99 29L110 34L97 69" fill="#f3c65f" stroke-width="4"/><path d="M19 48Q59 71 105 47L92 108L34 108Z" fill="#dd5746"/><path d="M40 59l6 44M82 60l-5 43" fill="none" stroke="#ffb395" stroke-width="7"/><circle cx="63" cy="82" r="15" fill="#fff0ce" stroke="none"/><path d="M57 83l5 5 9-12" fill="none" stroke="#d84b3e" stroke-width="4"/></g></svg>
